<svg width="24" height="24" viewBox="0 0 24 24" fill="none" xmlns="http://www.w3.org/2000/svg">
<mask id="mask0_6226_441" style="mask-type:alpha" maskUnits="userSpaceOnUse" x="0" y="0" width="24" height="24">
<rect width="24" height="24" fill="#D9D9D9"/>
</mask>
<g mask="url(#mask0_6226_441)">
<path d="M7 18H15C15.55 18 16.0208 17.8042 16.4125 17.4125C16.8042 17.0208 17 16.55 17 16V13H5V16C5 16.55 5.19583 17.0208 5.5875 17.4125C5.97917 17.8042 6.45 18 7 18ZM8.5625 16.5625C8.85417 16.2708 9 15.9167 9 15.5C9 15.0833 8.85417 14.7292 8.5625 14.4375C8.27083 14.1458 7.91667 14 7.5 14C7.08333 14 6.72917 14.1458 6.4375 14.4375C6.14583 14.7292 6 15.0833 6 15.5C6 15.9167 6.14583 16.2708 6.4375 16.5625C6.72917 16.8542 7.08333 17 7.5 17C7.91667 17 8.27083 16.8542 8.5625 16.5625ZM15.5625 16.5625C15.8542 16.2708 16 15.9167 16 15.5C16 15.0833 15.8542 14.7292 15.5625 14.4375C15.2708 14.1458 14.9167 14 14.5 14C14.0833 14 13.7292 14.1458 13.4375 14.4375C13.1458 14.7292 13 15.0833 13 15.5C13 15.9167 13.1458 16.2708 13.4375 16.5625C13.7292 16.8542 14.0833 17 14.5 17C14.9167 17 15.2708 16.8542 15.5625 16.5625ZM5 22C4.71667 22 4.47917 21.9042 4.2875 21.7125C4.09583 21.5208 4 21.2833 4 21V18.95C3.7 18.6167 3.45833 18.2458 3.275 17.8375C3.09167 17.4292 3 16.9833 3 16.5V7C3 5.61667 3.64167 4.60417 4.925 3.9625C6.20833 3.32083 8.23333 3 11 3C11.4333 3 11.8417 3.00417 12.225 3.0125C12.6083 3.02083 12.975 3.04167 13.325 3.075C13.2083 3.39167 13.125 3.7125 13.075 4.0375C13.025 4.3625 13 4.7 13 5.05C12.7167 5.03333 12.4125 5.02083 12.0875 5.0125C11.7625 5.00417 11.4167 5 11.05 5C9.6 5 8.4 5.08333 7.45 5.25C6.5 5.41667 5.83333 5.66667 5.45 6H13.075C13.1417 6.31667 13.2333 6.64167 13.35 6.975C13.4667 7.30833 13.6167 7.65 13.8 8H5V11H16.075L19 13.625V16.5C19 16.9833 18.9083 17.4292 18.725 17.8375C18.5417 18.2458 18.3 18.6167 18 18.95V21C18 21.2833 17.9042 21.5208 17.7125 21.7125C17.5208 21.9042 17.2833 22 17 22H16C15.7167 22 15.4792 21.9042 15.2875 21.7125C15.0958 21.5208 15 21.2833 15 21V20H7V21C7 21.2833 6.90417 21.5208 6.7125 21.7125C6.52083 21.9042 6.28333 22 6 22H5ZM18.2875 5.7125C18.0958 5.52083 18 5.28333 18 5C18 4.71667 18.0958 4.47917 18.2875 4.2875C18.4792 4.09583 18.7167 4 19 4C19.2833 4 19.5208 4.09583 19.7125 4.2875C19.9042 4.47917 20 4.71667 20 5C20 5.28333 19.9042 5.52083 19.7125 5.7125C19.5208 5.90417 19.2833 6 19 6C18.7167 6 18.4792 5.90417 18.2875 5.7125ZM20.775 3.2625C21.2583 3.77083 21.5 4.38333 21.5 5.1C21.5 5.63333 21.2958 6.22083 20.8875 6.8625C20.4792 7.50417 19.8583 8.21667 19.025 9C18.175 8.2 17.5417 7.48333 17.125 6.85C16.7083 6.21667 16.5 5.63333 16.5 5.1C16.5 4.38333 16.7417 3.77083 17.225 3.2625C17.7083 2.75417 18.3 2.5 19 2.5C19.7 2.5 20.2917 2.75417 20.775 3.2625ZM19 11C20.35 9.85 21.3542 8.7875 22.0125 7.8125C22.6708 6.8375 23 5.93333 23 5.1C23 3.96667 22.6125 3 21.8375 2.2C21.0625 1.4 20.1167 1 19 1C17.8833 1 16.9375 1.4 16.1625 2.2C15.3875 3 15 3.96667 15 5.1C15 5.93333 15.3292 6.8375 15.9875 7.8125C16.6458 8.7875 17.65 9.85 19 11Z" fill="#6889B3"/>
</g>
</svg>
